<svg width="235" height="266" viewBox="0 0 235 266" fill="none" xmlns="http://www.w3.org/2000/svg">
  <g clip-path="url(#clip0_51_189)">
  <path d="M190.835 123.299C190.835 83.2262 158.41 50.7432 118.415 50.7432C78.4205 50.7432 45.9954 83.2291 45.9954 123.299C45.9954 143.174 53.9759 161.183 66.8966 174.286C66.8966 174.286 88.8122 197.769 96.2152 223.362C96.2152 223.362 108.869 227.667 118.418 227.906C127.968 227.667 140.621 223.362 140.621 223.362C148.021 197.769 169.94 174.286 169.94 174.286C182.861 161.18 190.841 143.174 190.841 123.299H190.835Z" fill="url(#paint0_linear_51_189)"/>
  <path d="M118.395 266C112.179 266 107.138 260.95 107.138 254.723H129.652C129.652 260.95 124.611 266 118.395 266Z" fill="#0A2237"/>
  <path d="M94.2551 217.581H142.541V236.595C142.541 248.305 133.052 257.809 121.367 257.809H115.432C103.744 257.809 94.258 248.302 94.258 236.595V217.581H94.2551Z" fill="#1C3F5D"/>
  <g style="mix-blend-mode:multiply" opacity="0.3">
  <path d="M190.835 123.299C190.835 108.454 186.384 94.6509 178.748 83.1543C157.565 135.443 123.784 170.61 75.1243 184.251C81.2541 192.305 89.3755 204.432 94.2868 217.581H142.538C151.22 194.343 169.934 174.289 169.934 174.289C182.855 161.183 190.835 143.177 190.835 123.302V123.299Z" fill="#52AFC1"/>
  </g>
  <path d="M121.292 258.195H115.358C103.664 258.195 94.1833 248.696 94.1833 236.981V217.967C94.1833 217.967 132.988 258.198 121.292 258.198V258.195Z" fill="#0A2237"/>
  <path d="M129.959 217.863L127.887 217.296C127.956 217.048 134.71 192.169 139.394 166.685C147.521 122.47 142.848 113.092 139.34 111.437C135.753 109.747 132.931 110.049 130.954 112.338C130.81 112.505 130.672 112.68 130.54 112.865C135.601 115.856 136.828 120.451 137.118 122.311C137.92 127.445 135.629 132.57 132.008 133.736C131.132 134.018 129.445 134.162 127.988 131.951C125.672 128.444 124.948 119.671 127.543 113.821C125.054 112.801 122.022 112.257 118.55 112.257H116.461C112.99 112.257 109.958 112.801 107.469 113.821C110.061 119.668 109.34 128.441 107.024 131.951C105.567 134.159 103.88 134.018 103.003 133.736C99.3821 132.57 97.0917 127.445 97.8935 122.311C98.1837 120.451 99.4108 115.856 104.472 112.865C104.339 112.68 104.201 112.505 104.058 112.341C102.081 110.052 99.2585 109.747 95.672 111.439C92.1631 113.095 87.4903 122.473 95.6174 166.688C100.302 192.172 107.055 217.051 107.124 217.299L105.052 217.866C104.983 217.615 98.2096 192.662 93.508 167.089C87.019 131.79 87.4271 112.948 94.7581 109.49C100.448 106.81 103.839 108.794 105.684 110.933C105.943 111.232 106.187 111.552 106.414 111.889C108.949 110.809 112.225 110.106 116.464 110.106H118.553C122.795 110.106 126.071 110.809 128.606 111.889C128.833 111.552 129.074 111.232 129.336 110.933C131.181 108.796 134.575 106.81 140.262 109.49C147.593 112.948 148.004 131.787 141.515 167.089C136.813 192.659 130.04 217.615 129.971 217.866L129.959 217.863ZM105.532 114.768C102.477 116.556 100.54 119.239 100.009 122.642C99.3074 127.122 101.328 130.935 103.653 131.683C103.868 131.752 104.446 131.939 105.225 130.762C107.207 127.759 107.731 119.824 105.532 114.771V114.768ZM129.468 114.768C127.27 119.824 127.793 127.756 129.776 130.759C130.554 131.939 131.129 131.752 131.347 131.68C133.672 130.932 135.693 127.12 134.991 122.64C134.46 119.236 132.523 116.553 129.468 114.765V114.768Z" fill="white"/>
  <path d="M27.2408 111.877C27.1948 111.877 27.1489 111.877 27.1029 111.871L1.47424 109.686C0.586235 109.611 -0.0718672 108.828 0.0057257 107.941C0.0804447 107.051 0.862121 106.395 1.74725 106.47L27.3759 108.655C28.2639 108.73 28.922 109.513 28.8444 110.4C28.7726 111.241 28.0685 111.877 27.2408 111.877Z" fill="#5BC3B5"/>
  <path d="M40.4977 70.9722C40.1845 70.9722 39.8684 70.8801 39.5896 70.69L18.3608 56.1386C17.6251 55.6347 17.4383 54.6299 17.9412 53.8928C18.4441 53.1586 19.4471 52.9686 20.1799 53.4725L41.4087 68.0239C42.1444 68.5278 42.3312 69.5326 41.8283 70.2697C41.5151 70.7275 41.0121 70.9722 40.4977 70.9722Z" fill="#5BC3B5"/>
  <path d="M78.8631 41.6305C78.228 41.6305 77.6245 41.2504 77.3687 40.6227L67.6869 16.7485C67.3506 15.9221 67.7501 14.9806 68.5749 14.6438C69.3968 14.3069 70.3394 14.7042 70.6756 15.5335L80.3575 39.4077C80.6937 40.234 80.2943 41.1755 79.4695 41.5124C79.2712 41.593 79.0643 41.6305 78.8631 41.6305Z" fill="#5BC3B5"/>
  <path d="M207.722 116.53C206.88 116.53 206.173 115.876 206.115 115.021C206.058 114.131 206.73 113.363 207.618 113.302L233.284 111.604C234.164 111.546 234.94 112.22 234.997 113.109C235.055 113.999 234.382 114.768 233.494 114.828L207.828 116.527C207.794 116.527 207.756 116.53 207.722 116.53Z" fill="#5BC3B5"/>
  <path d="M195.241 75.3801C194.715 75.3801 194.201 75.1239 193.893 74.6517C193.405 73.906 193.611 72.904 194.356 72.4146L215.855 58.2691C216.599 57.7796 217.599 57.9869 218.088 58.7326C218.576 59.4784 218.369 60.4803 217.625 60.9698L196.126 75.1153C195.853 75.2938 195.546 75.3801 195.244 75.3801H195.241Z" fill="#5BC3B5"/>
  <path d="M162.402 41.5354C162.189 41.5354 161.974 41.4922 161.767 41.4029C160.948 41.0516 160.568 40.1015 160.919 39.2838L171.049 15.5967C171.4 14.7761 172.348 14.399 173.164 14.7473C173.983 15.0986 174.363 16.0487 174.012 16.8664L163.882 40.5535C163.62 41.1668 163.025 41.5325 162.399 41.5325L162.402 41.5354Z" fill="#5BC3B5"/>
  <path d="M121.088 28.9964C121.088 28.9964 121.071 28.9964 121.062 28.9964C120.171 28.982 119.461 28.2478 119.476 27.3581L119.872 1.59224C119.887 0.708332 120.605 0.00292969 121.485 0.00292969C121.493 0.00292969 121.502 0.00292969 121.51 0.00292969C122.401 0.0173257 123.111 0.75152 123.097 1.64119L122.7 27.4071C122.686 28.291 121.967 28.9964 121.088 28.9964Z" fill="#5BC3B5"/>
  <g opacity="0.5">
  <path d="M166.74 88.3179C169.275 84.3762 164.652 76.8689 156.414 71.5498C148.176 66.2308 139.442 65.1142 136.907 69.0558C134.371 72.9975 138.994 80.5048 147.232 85.8239C155.47 91.143 164.204 92.2596 166.74 88.3179Z" fill="#F3FFFE"/>
  </g>
  </g>
  <defs>
  <linearGradient id="paint0_linear_51_189" x1="118.418" y1="50.7432" x2="118.418" y2="227.906" gradientUnits="userSpaceOnUse">
  <stop stop-color="#5BC3B5"/>
  <stop offset="1" stop-color="#489BCB"/>
  </linearGradient>
  <clipPath id="clip0_51_189">
  <rect width="235" height="266" fill="white"/>
  </clipPath>
  </defs>
  </svg>
  