<svg width="120" height="239" viewBox="0 0 120 239" fill="none" xmlns="http://www.w3.org/2000/svg">
  <g clip-path="url(#clip0_51_179)">
  <path d="M70.1704 123.841H60.6098H59.983H50.4254L48.9794 238.07L59.8899 239H60.5105H71.0114L70.1704 123.841Z" fill="#1C3F5D"/>
  <path d="M46.0469 112.335H74.372V123.196C74.372 124.817 73.0532 126.134 71.4302 126.134H48.9886C47.3657 126.134 46.0469 124.817 46.0469 123.196V112.335Z" fill="#0A2237"/>
  <path d="M102.43 102.311C125.862 78.9056 125.862 40.9587 102.43 17.5537C78.9977 -5.85119 41.0068 -5.8512 17.5747 17.5537C-5.85734 40.9587 -5.85734 78.9056 17.5747 102.311C41.0068 125.715 78.9977 125.715 102.43 102.311Z" fill="url(#paint0_linear_51_179)"/>
  <path d="M102.5 102.451C125.972 79.0059 125.972 40.9941 102.5 17.5492C79.0279 -5.89574 40.9721 -5.89574 17.5 17.5492C-5.9721 40.9941 -5.9721 79.0059 17.5 102.451C40.9721 125.896 79.0279 125.896 102.5 102.451Z" fill="white" fill-opacity="0.5"/>
  <path d="M94.1368 94.0174C113.124 75.0524 113.124 44.3041 94.1368 25.3391C75.1498 6.3741 44.3659 6.3741 25.3789 25.3391C6.39197 44.3041 6.39197 75.0524 25.3789 94.0174C44.3659 112.982 75.1498 112.982 94.1368 94.0174Z" fill="#53B5BC"/>
  <path d="M47.4789 26.6155C43.9771 22.8718 34.7773 25.7732 26.9306 33.0959C19.0838 40.4187 15.5615 49.3898 19.0633 53.1335C22.5652 56.8772 31.765 53.9759 39.6117 46.6531C47.4585 39.3304 50.9808 30.3592 47.4789 26.6155Z" fill="#A8D7E0"/>
  <path d="M54.3043 130.179H59.8899V231.998L54.3043 229.673V130.179Z" fill="#0A2237"/>
  </g>
  <defs>
  <linearGradient id="paint0_linear_51_179" x1="-30.7208" y1="14.2578" x2="204.024" y2="166.072" gradientUnits="userSpaceOnUse">
  <stop stop-color="#5BC3B5"/>
  <stop offset="1" stop-color="#4A9FC9"/>
  </linearGradient>
  <clipPath id="clip0_51_179">
  <rect width="120" height="239" fill="white"/>
  </clipPath>
  </defs>
  </svg>
  