<svg width="315" height="179" viewBox="0 0 315 179" fill="none" xmlns="http://www.w3.org/2000/svg">
  <path d="M0.769287 52.1135C0.769287 28.9858 25.835 14.5563 45.8349 26.1707L142.026 82.0315L214.734 122.85C241.666 137.969 230.933 179.009 200.048 179.009H30.7693C14.2008 179.009 0.769287 165.578 0.769287 149.009V52.1135Z" fill="url(#paint0_linear_51_210)"/>
  <rect x="9.4707" y="7.30908" width="251.995" height="164.98" rx="30" fill="url(#paint1_linear_51_210)"/>
  <path d="M158.034 78.3394L126.23 59.6874C124.297 58.555 122.105 57.9586 119.873 57.958C117.641 57.9574 115.448 58.5527 113.514 59.684C111.581 60.8154 109.975 62.443 108.857 64.4034C107.74 66.3638 107.15 68.588 107.148 70.8527V108.157C107.15 110.42 107.739 112.643 108.855 114.603C109.972 116.563 111.577 118.19 113.509 119.322C115.443 120.455 117.636 121.051 119.869 121.051C122.102 121.051 124.296 120.455 126.23 119.322L158.034 100.67C159.962 99.5354 161.562 97.9068 162.674 95.9473C163.787 93.9877 164.372 91.7661 164.372 89.5047C164.372 87.2434 163.787 85.0217 162.674 83.0622C161.562 81.1027 159.962 79.474 158.034 78.3394Z" fill="white"/>
  <defs>
  <linearGradient id="paint0_linear_51_210" x1="257.445" y1="178.769" x2="-183.55" y2="-115.182" gradientUnits="userSpaceOnUse">
  <stop stop-color="#4493D0"/>
  <stop offset="1" stop-color="#59C0B7"/>
  </linearGradient>
  <linearGradient id="paint1_linear_51_210" x1="-8.80242" y1="-9.63388" x2="386.121" y2="274.016" gradientUnits="userSpaceOnUse">
  <stop stop-color="#5BC3B5"/>
  <stop offset="1" stop-color="#4493D0"/>
  </linearGradient>
  </defs>
  </svg>
  